<mxfile host="65bd71144e" scale="2" border="0">
    <diagram id="Qao14EqtsgzHSJVV1FkM" name="Page-1">
        <mxGraphModel dx="649" dy="620" grid="1" gridSize="10" guides="1" tooltips="1" connect="1" arrows="1" fold="1" page="1" pageScale="1" pageWidth="3300" pageHeight="4681" background="#FFFFFF" math="0" shadow="0">
            <root>
                <mxCell id="0"/>
                <mxCell id="1" parent="0"/>
                <mxCell id="2" value="成绩分析模块窗口界面" style="swimlane;fillColor=#A8DADC;strokeColor=#457B9D;fontColor=#1D3557;fontSize=15;strokeWidth=2;" vertex="1" parent="1">
                    <mxGeometry x="50" y="120" width="510" height="340" as="geometry"/>
                </mxCell>
                <mxCell id="3" value="学生成绩数据表格" style="rounded=0;whiteSpace=wrap;html=1;fillColor=#A8DADC;strokeColor=#457B9D;fontColor=#1D3557;fontSize=15;" vertex="1" parent="2">
                    <mxGeometry x="10" y="30" width="160" height="300" as="geometry"/>
                </mxCell>
                <mxCell id="4" value="窗口操作按键" style="rounded=0;whiteSpace=wrap;html=1;fillColor=#A8DADC;strokeColor=#457B9D;fontColor=#1D3557;fontSize=15;" vertex="1" parent="2">
                    <mxGeometry x="180" y="290" width="320" height="40" as="geometry"/>
                </mxCell>
                <mxCell id="5" value="QStackWidget" style="rounded=0;whiteSpace=wrap;html=1;fillColor=#A8DADC;strokeColor=#457B9D;fontColor=#1D3557;fontSize=15;" vertex="1" parent="2">
                    <mxGeometry x="180" y="30" width="320" height="250" as="geometry"/>
                </mxCell>
                <mxCell id="8" value="" style="rounded=0;whiteSpace=wrap;html=1;sketch=0;strokeColor=#457B9D;fillColor=#A8DADC;fontColor=#1D3557;" vertex="1" parent="1">
                    <mxGeometry x="580" y="130" width="200" height="140" as="geometry"/>
                </mxCell>
                <mxCell id="9" value="" style="rounded=0;whiteSpace=wrap;html=1;sketch=0;strokeColor=#457B9D;fillColor=#A8DADC;fontColor=#1D3557;" vertex="1" parent="1">
                    <mxGeometry x="590" y="140" width="200" height="140" as="geometry"/>
                </mxCell>
                <mxCell id="10" value="CompletionPieChart" style="text;html=1;strokeColor=none;fillColor=none;align=center;verticalAlign=middle;whiteSpace=wrap;rounded=0;sketch=0;fontColor=#1D3557;" vertex="1" parent="1">
                    <mxGeometry x="580" y="130" width="110" height="10" as="geometry"/>
                </mxCell>
                <mxCell id="11" value="GradeVisualizationWidget" style="text;html=1;strokeColor=none;fillColor=none;align=center;verticalAlign=middle;whiteSpace=wrap;rounded=0;sketch=0;fontColor=#1D3557;" vertex="1" parent="1">
                    <mxGeometry x="590" y="140" width="140" height="10" as="geometry"/>
                </mxCell>
                <mxCell id="12" value="" style="shape=flexArrow;endArrow=classic;html=1;strokeColor=#457B9D;fillColor=#A8DADC;fontColor=#1D3557;" edge="1" parent="1">
                    <mxGeometry width="50" height="50" relative="1" as="geometry">
                        <mxPoint x="689" y="260" as="sourcePoint"/>
                        <mxPoint x="689" y="340" as="targetPoint"/>
                    </mxGeometry>
                </mxCell>
                <mxCell id="14" value="&lt;font style=&quot;font-size: 15px&quot;&gt;QVBoxLayout&lt;/font&gt;" style="rounded=0;whiteSpace=wrap;html=1;sketch=0;strokeColor=#457B9D;fontColor=#1D3557;fillColor=none;dashed=1;strokeWidth=2;" vertex="1" parent="1">
                    <mxGeometry x="590" y="290" width="200" height="140" as="geometry"/>
                </mxCell>
                <mxCell id="16" value="" style="shape=flexArrow;endArrow=classic;html=1;strokeColor=#457B9D;fillColor=#A8DADC;fontColor=#1D3557;" edge="1" parent="1">
                    <mxGeometry width="50" height="50" relative="1" as="geometry">
                        <mxPoint x="600" y="360" as="sourcePoint"/>
                        <mxPoint x="520" y="280" as="targetPoint"/>
                    </mxGeometry>
                </mxCell>
            </root>
        </mxGraphModel>
    </diagram>
</mxfile>